<svg width="33" height="32" viewBox="0 0 33 32" fill="none" xmlns="http://www.w3.org/2000/svg">
<path d="M28.0251 6.08997H26.5051V16.76H28.0251V6.08997Z" fill="#000001"/>
<path d="M26.5051 16.76H24.9851V19.81H26.5051V16.76Z" fill="#000001"/>
<path d="M26.5051 3.05005H24.9851V6.09005H26.5051V3.05005Z" fill="#000001"/>
<path d="M24.9851 19.8101H23.4551V21.3301H24.9851V19.8101Z" fill="#000001"/>
<path d="M23.4551 21.33H21.9351V22.86H23.4551V21.33Z" fill="#000001"/>
<path d="M24.9851 1.52002H21.9351V3.05002H24.9851V1.52002Z" fill="#000001"/>
<path d="M21.9351 7.62H20.4051V18.28H21.9351V7.62Z" fill="#000001"/>
<path d="M20.4051 18.28H18.8851V22.86H14.3151V18.28H12.7851V22.86H11.2651V24.38H12.7851V27.43H11.2651V30.48H12.7851V32H20.4051V30.48H21.9351V27.43H20.4051V24.38H21.9351V22.86H20.4051V18.28ZM18.8851 27.43H14.3151V24.38H18.8851V27.43Z" fill="#000001"/>
<path d="M12.7851 7.62H14.3151V1.52H18.8851V7.62H20.4051V1.52H21.9351V0H11.2651V1.52H12.7851V7.62Z" fill="#000001"/>
<path d="M12.7851 7.62H11.2651V18.28H12.7851V7.62Z" fill="#000001"/>
<path d="M11.2651 21.33H9.74512V22.86H11.2651V21.33Z" fill="#000001"/>
<path d="M11.2651 1.52002H8.21509V3.05002H11.2651V1.52002Z" fill="#000001"/>
<path d="M9.74509 19.8101H8.21509V21.3301H9.74509V19.8101Z" fill="#000001"/>
<path d="M8.21513 16.76H6.69513V19.81H8.21513V16.76Z" fill="#000001"/>
<path d="M8.21513 3.05005H6.69513V6.09005H8.21513V3.05005Z" fill="#000001"/>
<path d="M6.69511 6.08997H5.17511V16.76H6.69511V6.08997Z" fill="#000001"/>
</svg>
