<svg width="24" height="24" viewBox="0 0 24 24" fill="none" xmlns="http://www.w3.org/2000/svg">
<rect width="24" height="24" transform="translate(0 0.000610352)" fill="white"/>
<path fill-rule="evenodd" clip-rule="evenodd" d="M14 4.00061H11.0004V5.00061H9V6.00061H8V8.00061H7V12.0006H8V14.0006H9V18.9958H10V19.9958L15 20.0006V19.0006H16V14.0006H17V12.0006H18V8.00061H17V6.00061H16V5.00061H14V4.00061ZM14 5.00061V6.00061H16V8.00061H17V12.0006H16V14.0006H15L15.0004 15.0006L13.0007 14.9965V9.00061H14V7.99585L11 8.00061V9.00061H12V14.9965L10 15.0006V14.0006H9V12.0006H8V8.00061H9V6.00061H11.0004V5.00061H14ZM12 9.00061L13.0007 8.99774V9.00061H12ZM15 19.0006L10 18.9958V17.9958H15.0004L15 19.0006ZM10 16.9958V16.0006H15L15.0004 16.9958H10Z" fill="black"/>
</svg>
