<svg width="33" height="32" viewBox="0 0 33 32" fill="none" xmlns="http://www.w3.org/2000/svg">
<path d="M31.1753 22.86H26.6053V21.33H28.1253V19.81H5.27534V21.33H6.80034V22.86H2.22534V32H31.1753V22.86ZM8.31534 21.33H25.0753V22.86H8.31534V21.33ZM29.6553 30.48H3.74534V24.38H29.6553V30.48Z" fill="#000001"/>
<path d="M29.6553 1.52H28.1253V19.81H29.6553V1.52Z" fill="#000001"/>
<path d="M23.5554 28.95H25.0754V27.43H26.6054V25.9H18.9854V27.43H23.5554V28.95Z" fill="#000001"/>
<path d="M22.0353 6.10001H20.5053V7.62001H22.0353V6.10001Z" fill="#000001"/>
<path d="M12.8854 6.10001H11.3654V7.62001H12.8854V6.10001Z" fill="#000001"/>
<path d="M22.0353 9.14H20.5053V7.62H12.8853V9.14H11.3653V10.67H9.84534V15.24H11.3653V12.19H12.8853V15.24H14.4153V13.71H18.9853V15.24H20.5053V12.19H22.0353V15.24H23.5553V10.67H22.0353V9.14ZM15.9353 10.67H14.4153V9.14H15.9353V10.67ZM18.9853 10.67H17.4653V9.14H18.9853V10.67Z" fill="#000001"/>
<path d="M6.80035 18.29H26.6104V3.05H6.80035V18.29ZM8.31535 4.57H25.0754V16.76H8.31535V4.57Z" fill="#000001"/>
<path d="M8.31535 25.9H6.79535V27.43H8.31535V25.9Z" fill="#000001"/>
<path d="M28.1253 0H5.27533V1.52H28.1253V0Z" fill="#000001"/>
<path d="M5.27536 1.52H3.74536V19.81H5.27536V1.52Z" fill="#000001"/>
</svg>
