<svg width="33" height="33" viewBox="0 0 33 33" fill="none" xmlns="http://www.w3.org/2000/svg">
<g clip-path="url(#clip0_1135_2357)">
<path d="M32.8501 15.74H31.3301V26.41H32.8501V15.74Z" fill="#000001"/>
<path d="M31.3301 26.41H29.8001V27.93H31.3301V26.41Z" fill="#000001"/>
<path d="M31.3301 12.6899H29.8001V15.7399H31.3301V12.6899Z" fill="#000001"/>
<path d="M29.8001 27.9301H28.2801V29.4601H29.8001V27.9301Z" fill="#000001"/>
<path d="M29.8001 9.65002H28.2801V12.69H29.8001V9.65002Z" fill="#000001"/>
<path d="M28.2801 29.46H26.7601V30.98H28.2801V29.46Z" fill="#000001"/>
<path d="M28.2801 8.12H26.7601V9.64999H28.2801V8.12Z" fill="#000001"/>
<path d="M26.7601 3.55005H25.2301V8.12005H26.7601V3.55005Z" fill="#000001"/>
<path d="M17.6101 30.9801V29.4601H20.6601V27.9301H16.0901V29.4601H8.47009V30.9801H16.0901V32.5001H26.7601V30.9801H17.6101Z" fill="#000001"/>
<path d="M25.2301 2.03003H23.7101V3.55003H25.2301V2.03003Z" fill="#000001"/>
<path d="M23.7101 15.74H20.6601V17.26H23.7101V15.74Z" fill="#000001"/>
<path d="M22.1901 26.41H20.6601V27.93H22.1901V26.41Z" fill="#000001"/>
<path d="M23.7101 0.5H19.1401V2.03H23.7101V0.5Z" fill="#000001"/>
<path d="M20.6601 24.88H19.1401V26.41H20.6601V24.88Z" fill="#000001"/>
<path d="M20.6601 17.26H19.1401V18.79H20.6601V17.26Z" fill="#000001"/>
<path d="M22.1901 3.55005H19.1401V6.60005H22.1901V3.55005Z" fill="#000001"/>
<path d="M19.1401 18.79H17.6101V24.88H19.1401V18.79Z" fill="#000001"/>
<path d="M19.1401 2.03003H17.6101V3.55003H19.1401V2.03003Z" fill="#000001"/>
<path d="M17.6101 3.55005H16.0901V6.60005H17.6101V3.55005Z" fill="#000001"/>
<path d="M16.0901 26.41H14.5701V27.93H16.0901V26.41Z" fill="#000001"/>
<path d="M14.5701 21.84H13.0401V26.41H14.5701V21.84Z" fill="#000001"/>
<path d="M16.0901 6.59998H13.0401V8.11998H16.0901V6.59998Z" fill="#000001"/>
<path d="M13.0401 20.3101H11.5201V21.8401H13.0401V20.3101Z" fill="#000001"/>
<path d="M13.0401 9.65002H11.5201V11.17H13.0401V9.65002Z" fill="#000001"/>
<path d="M13.0401 3.55005H11.5201V6.60005H13.0401V3.55005Z" fill="#000001"/>
<path d="M11.5201 2.03003H10.0001V3.55003H11.5201V2.03003Z" fill="#000001"/>
<path d="M11.5201 11.17H6.9501V12.69H11.5201V11.17Z" fill="#000001"/>
<path d="M8.4701 27.9301H6.9501V29.4601H8.4701V27.9301Z" fill="#000001"/>
<path d="M10.0001 0.5H5.4201V2.03H10.0001V0.5Z" fill="#000001"/>
<path d="M2.3801 30.98V29.46H0.850098V32.5H8.4701V30.98H2.3801Z" fill="#000001"/>
<path d="M11.5201 18.79H3.90009V20.31H11.5201V18.79Z" fill="#000001"/>
<path d="M8.4701 3.55005H5.4201V6.60005H8.4701V3.55005Z" fill="#000001"/>
<path d="M5.4201 27.93H6.9501V26.41H3.9001V27.93H2.3801V29.46H5.4201V27.93Z" fill="#000001"/>
<path d="M5.42009 8.12H3.90009V11.17H5.42009V8.12Z" fill="#000001"/>
<path d="M5.42009 2.03003H3.90009V3.55003H5.42009V2.03003Z" fill="#000001"/>
<path d="M3.9001 24.88H2.3801V26.41H3.9001V24.88Z" fill="#000001"/>
<path d="M3.9001 11.17H2.3801V14.22H3.9001V11.17Z" fill="#000001"/>
<path d="M3.9001 3.55005H2.3801V8.12005H3.9001V3.55005Z" fill="#000001"/>
<path d="M3.9001 21.84V20.31H2.3801V14.22H0.850098V24.88H2.3801V21.84H3.9001Z" fill="#000001"/>
</g>
<defs>
<clipPath id="clip0_1135_2357">
<rect width="32" height="32" fill="white" transform="translate(0.850098 0.5)"/>
</clipPath>
</defs>
</svg>
