<svg width="24" height="24" viewBox="0 0 24 24" fill="none" xmlns="http://www.w3.org/2000/svg">
<rect width="24" height="24" transform="translate(0 0.000610352)" fill="white"/>
<path fill-rule="evenodd" clip-rule="evenodd" d="M6.00032 20.0006H9.00032V19.0006H10.0003V18.0006H11.0003V10.0006H13.0003V9.00061H15.0003V14.0006H13.0003V15.0006H12.0003V17.0006H13.0003V18.0006H16.0003V17.0006H17.0003V16.0006H18.0003V5.00061H17.0003V4.00061H15.0003V5.00061H13.0003V6.00061H11.0003V7.00061H9.00032V8.00061H8.00032V16.0006H6.00032V17.0006L5 17.0007L5.00032 19.012L6.00032 19.0118V20.0006ZM6.00032 17.0006V19.0006H9.00032V18.0006H10.0003V10.0006H11.0003V9.00061H13.0003V8.00061H15.0003V9.00061H16.0003V14.0006H15.0003V15.0006H13.0003V17.0006H16.0003V16.0006H17.0003V5.00061H15.0003V6.00061H13.0003V7.00061H11.0003V8.00061H9.00032V16.0006H8.00032V17.0006H6.00032Z" fill="black"/>
</svg>
