<svg width="33" height="33" viewBox="0 0 33 33" fill="none" xmlns="http://www.w3.org/2000/svg">
<g clip-path="url(#clip0_1135_2141)">
<path d="M32.8501 17.2599H31.3301V18.7899H32.8501V17.2599Z" fill="#000001"/>
<path d="M31.3301 18.7899H29.8001V20.3099H31.3301V18.7899Z" fill="#000001"/>
<path d="M29.8001 23.36H28.2801V26.41H29.8001V23.36Z" fill="#000001"/>
<path d="M29.8001 20.3099H28.2801V21.8399H29.8001V20.3099Z" fill="#000001"/>
<path d="M28.2801 21.84H26.7601V23.36H28.2801V21.84Z" fill="#000001"/>
<path d="M28.2801 26.4099H23.7101V27.9299H28.2801V26.4099Z" fill="#000001"/>
<path d="M25.2301 6.59998H23.7101V8.11998H25.2301V6.59998Z" fill="#000001"/>
<path d="M23.7101 24.88H22.1901V26.41H23.7101V24.88Z" fill="#000001"/>
<path d="M22.1901 23.36H20.6601V24.88H22.1901V23.36Z" fill="#000001"/>
<path d="M20.6601 21.84H19.1401V23.36H20.6601V21.84Z" fill="#000001"/>
<path d="M23.7101 5.06995H16.0901V6.59995H23.7101V5.06995Z" fill="#000001"/>
<path d="M19.1401 23.36H16.0901V24.88H19.1401V23.36Z" fill="#000001"/>
<path d="M16.0901 21.84H14.5701V23.36H16.0901V21.84Z" fill="#000001"/>
<path d="M14.5701 23.36H13.0401V24.88H14.5701V23.36Z" fill="#000001"/>
<path d="M13.0401 24.88H8.47009V26.41H13.0401V24.88Z" fill="#000001"/>
<path d="M11.5201 20.3099H10.0001V21.8399H11.5201V20.3099Z" fill="#000001"/>
<path d="M11.5201 15.74H10.0001V17.26H11.5201V15.74Z" fill="#000001"/>
<path d="M11.5201 12.69V11.17H13.0401V12.69H14.5701V15.74H13.0401V17.26H11.5201V18.79H13.0401V20.31H26.7601V18.79H28.2801V17.26H31.3301V15.74H29.8001V12.69H28.2801V15.74H26.7601V17.26H25.2301V15.74H23.7101V12.69H25.2301V11.17H26.7601V12.69H28.2801V9.64998H26.7601V8.11998H25.2301V9.64998H23.7101V11.17H17.6101V8.11998H16.0901V6.59998H13.0401V8.11998H11.5201V9.64998H10.0001V12.69H11.5201ZM16.0901 17.26H17.6101V15.74H22.1901V17.26H23.7101V18.79H16.0901V17.26Z" fill="#000001"/>
<path d="M10.0001 21.84H8.47009V23.36H10.0001V21.84Z" fill="#000001"/>
<path d="M10.0001 18.7899H8.47009V20.3099H10.0001V18.7899Z" fill="#000001"/>
<path d="M10.0001 12.6899H8.47009V15.7399H10.0001V12.6899Z" fill="#000001"/>
<path d="M10.0001 8.12H8.47009V9.64999H10.0001V8.12Z" fill="#000001"/>
<path d="M8.47007 23.36H6.95007V24.88H8.47007V23.36Z" fill="#000001"/>
<path d="M8.47007 17.2599H6.95007V18.7899H8.47007V17.2599Z" fill="#000001"/>
<path d="M6.9501 15.74H5.4201V17.26H6.9501V15.74Z" fill="#000001"/>
<path d="M8.47009 6.59998H3.90009V8.11998H8.47009V6.59998Z" fill="#000001"/>
<path d="M5.42013 14.22H2.38013V15.74H5.42013V14.22Z" fill="#000001"/>
<path d="M5.42009 11.1699H3.90009V12.6899H5.42009V11.1699Z" fill="#000001"/>
<path d="M3.90013 8.12H2.38013V9.64999H3.90013V8.12Z" fill="#000001"/>
<path d="M2.3801 9.6499H0.850098V14.2199H2.3801V9.6499Z" fill="#000001"/>
</g>
<defs>
<clipPath id="clip0_1135_2141">
<rect width="32" height="32" fill="white" transform="translate(0.850098 0.5)"/>
</clipPath>
</defs>
</svg>
