<svg width="24" height="24" viewBox="0 0 24 24" fill="none" xmlns="http://www.w3.org/2000/svg">
<rect width="24" height="24" transform="translate(0 0.000610352)" fill="white"/>
<path fill-rule="evenodd" clip-rule="evenodd" d="M3 13.0006V15.0006H4V16.0006H7V17.0006H6V18.0006H5V19.0006H6V18.0006H7V17.0006H8V16.0006H11V17.0006H12V18.0006H13V19.0006H14V18.0006H13V17.0006H12V16.0006H16V17.0006H17V18.0006H18V19.0006H19V18.0006H18V17.0006H17V16.0006H20V15.0006H21V13.0006H20V12.0006H19V10.0006H18V8.00061H17V7.00061H16V6.00061H14V5.00061H10V6.00061H8V7.00061H7V8.00061H6V10.0006H5V12.0006H4V13.0006H3ZM6 10.0006H7V8.00061H8V7.00061H10V6.00061H14V7.00061H16V8.00061H17V10.0006H18V12.0006H6V10.0006ZM4 13.0006V15.0006H20V13.0006H4Z" fill="black"/>
</svg>
