<svg width="24" height="24" viewBox="0 0 24 24" fill="none" xmlns="http://www.w3.org/2000/svg">
<rect width="24" height="24" transform="translate(0 0.000610352)" fill="white"/>
<path fill-rule="evenodd" clip-rule="evenodd" d="M4 10.0006V12.0006H5V13.0006H12V19.0006H10V18.0006H11V17.0006H9V19.0006H10V20.0006H12V19.0006H13V13.0006H20V12.0006H21V10.0006H20V8.00061H19V7.00061H18V6.00061H16V5.00061H13V4.00061H12V5.00061H9V6.00061H7V7.00061H6V8.00061H5V10.0006H4ZM5 10.0006H6V8.00061H7V7.00061H9V6.00061H16V7.00061H18V8.00061H19V10.0006H20V12.0006H5V10.0006Z" fill="black"/>
</svg>
